<mxfile host="app.diagrams.net" modified="2023-07-06T03:46:52.867Z" agent="Mozilla/5.0 (Macintosh; Intel Mac OS X 10_15_7) AppleWebKit/605.1.15 (KHTML, like Gecko) Version/16.3 Safari/605.1.15" version="21.6.1" etag="NagSAqYNSN8ro5tJpzvB" type="github">
  <diagram name="第 1 页" id="PJef4nOZp_Pi-idaibnx">
    <mxGraphModel>
      <root>
        <mxCell id="0" />
        <mxCell id="1" parent="0" />
      </root>
    </mxGraphModel>
  </diagram>
</mxfile>
